<svg width="50" height="50" viewBox="0 0 50 50" fill="none" xmlns="http://www.w3.org/2000/svg">
<path d="M34.6528 22.5649C35.0979 22.5649 35.4587 22.2041 35.4587 21.759C35.4587 21.3139 35.0979 20.9531 34.6528 20.9531C34.2078 20.9531 33.847 21.3139 33.847 21.759C33.847 22.2041 34.2078 22.5649 34.6528 22.5649Z" fill="white"/>
<path d="M41.0999 22.5649C41.5449 22.5649 41.9057 22.2041 41.9057 21.759C41.9057 21.3139 41.5449 20.9531 41.0999 20.9531C40.6548 20.9531 40.294 21.3139 40.294 21.759C40.294 22.2041 40.6548 22.5649 41.0999 22.5649Z" fill="white"/>
<path d="M49.9645 42.7519C49.9645 37.8965 46.4493 33.8405 41.7043 33.1112L41.3094 31.9273C43.528 31.1674 45.1293 29.0665 45.1293 26.594V25.7882C46.907 25.7882 48.3528 24.3424 48.3528 22.5646C48.3528 21.9078 48.1529 21.2978 47.8145 20.7877L48.1142 19.5877C48.2722 18.9543 48.3528 18.3031 48.3528 17.652C48.3528 13.5597 45.2558 10.1815 41.2836 9.72697C38.0343 3.71913 31.8339 0 24.9823 0C18.1492 0 11.9641 3.69979 8.70834 9.67862C3.8924 9.76323 0 13.7 0 18.5352V29.28C0 31.3592 0.687415 33.4198 1.93411 35.0832L2.19199 35.4265C0.826027 36.7521 0 38.5984 0 40.63V48.3528H21.4259C22.4276 49.0273 23.5406 49.5672 24.751 49.9307L24.9823 50L25.2136 49.9307C26.424 49.5672 27.5369 49.0273 28.5386 48.3528H49.9645V42.7519ZM40.2456 33.8308C39.8661 34.8076 38.9329 35.4587 37.8763 35.4587C36.8198 35.4587 35.8866 34.8068 35.5071 33.8308L36.043 32.2239C36.1171 32.2271 36.1896 32.2352 36.2646 32.2352H39.4881C39.5631 32.2352 39.6356 32.2271 39.7097 32.2239L40.2456 33.8308ZM17.5013 11.2823H30.592C28.6579 12.7402 27.3999 15.049 27.3999 17.652C27.3999 17.6778 27.4047 17.7036 27.4047 17.7294H20.9118C20.6805 15.1779 19.3613 12.9416 17.4255 11.4749C17.4505 11.4105 17.4755 11.346 17.5013 11.2823ZM31.7436 9.67056H18.2177C20.45 5.24869 23.8218 2.60057 24.9839 1.77858C26.1476 2.59977 29.5113 5.24305 31.7436 9.67056ZM33.8502 13.7056C33.851 14.5711 34.0484 15.3923 34.399 16.1257C32.5672 16.2401 31.0659 17.5851 30.7072 19.3411H30.6234C30.1544 19.3411 29.712 19.4467 29.3098 19.628L29.2019 19.1977C29.0761 18.6916 29.0117 18.1718 29.0117 17.652C29.0117 14.6694 31.0755 12.1656 33.8478 11.4765L33.8502 13.7056ZM20.9529 25.7882V19.3411H27.5925C27.6102 19.4233 27.6183 19.5063 27.6385 19.5877L27.9382 20.7877C27.5998 21.2978 27.3999 21.9078 27.3999 22.5646C27.3999 24.3424 28.8457 25.7882 30.6234 25.7882H20.9529ZM30.6234 24.1764C29.7345 24.1764 29.0117 23.4535 29.0117 22.5646C29.0117 21.6757 29.7345 20.9529 30.6234 20.9529V24.1764ZM20.9529 29.28V27.3999H30.6879C30.7524 27.8496 30.8676 28.2832 31.0328 28.6925C30.3116 29.9014 29.4565 31.0562 28.4838 32.1361C27.6393 31.9942 26.8229 31.6864 26.1008 31.2061L24.9823 30.4606L23.8645 31.2069C22.862 31.8742 21.679 32.2183 20.4895 32.2255C20.7941 31.2762 20.9529 30.2906 20.9529 29.28ZM31.9717 30.2447C32.3287 30.6637 32.7461 31.0288 33.2095 31.3294L31.4358 31.9209C31.1634 32.012 30.8853 32.0756 30.6049 32.1264C31.0925 31.5155 31.5534 30.8902 31.9717 30.2447ZM33.8469 31.6832C34.0404 31.775 34.2386 31.858 34.4433 31.9273L34.0484 33.112C33.9799 33.1225 33.9146 33.145 33.8469 33.1563V31.6832ZM43.5175 26.594C43.5175 28.8158 41.7099 30.6234 39.4881 30.6234H36.2646C34.0428 30.6234 32.2352 28.8158 32.2352 26.594V20.147C32.2352 18.8141 33.3199 17.7294 34.6528 17.7294H35.5474C36.5652 18.7254 37.9577 19.3411 39.4913 19.3411H41.9057C42.7946 19.3411 43.5175 20.064 43.5175 20.9529V26.594ZM45.1293 24.1764V20.9529C46.0182 20.9529 46.741 21.6757 46.741 22.5646C46.741 23.4535 46.0182 24.1764 45.1293 24.1764ZM46.741 17.652C46.741 18.1718 46.6766 18.6916 46.5508 19.1969L46.4428 19.628C46.0407 19.4467 45.5983 19.3411 45.1293 19.3411H44.6812C44.1219 18.3821 43.0936 17.7294 41.9057 17.7294H39.4913C37.2719 17.7294 35.4635 15.9234 35.4619 13.704L35.4595 11.2823H40.3713C43.8842 11.2823 46.741 14.1392 46.741 17.652ZM39.397 9.67056H33.5294C31.8403 5.97802 29.4106 3.37261 27.6417 1.82693C32.5068 2.59171 36.7924 5.42841 39.397 9.67056ZM22.3164 1.82774C20.5483 3.37502 18.1194 5.98607 16.4351 9.67056H10.5675C13.1713 5.43002 17.4537 2.59413 22.3164 1.82774ZM3.22352 34.1161C2.18393 32.73 1.61176 31.0119 1.61176 29.28V18.5352C1.61176 14.5365 4.8659 11.2823 8.86468 11.2823H12.0882C16.087 11.2823 19.3411 14.5365 19.3411 18.5352V29.28C19.3411 30.2197 19.1727 31.1344 18.8568 32.0095C18.748 31.9797 18.6368 31.9572 18.5296 31.9217L16.1176 31.1166V33.8059C15.8404 33.7075 15.5615 33.614 15.2722 33.5496L15.0135 33.4924C14.1142 33.2933 13.4171 32.6131 13.1931 31.7194L13.189 31.7041C15.8476 30.6275 17.7294 28.022 17.7294 24.9823V20.9529C17.7294 19.1751 16.2836 17.7294 14.5058 17.7294H10.4764C9.14351 17.7294 8.0588 16.6446 8.0588 15.3117V14.5058H6.44704V15.3117C6.44704 16.2224 6.76214 17.054 7.27387 17.7294H6.44704C4.66927 17.7294 3.22352 19.1751 3.22352 20.9529V24.9823C3.22352 28.022 5.10525 30.6267 7.76384 31.7041L7.76062 31.7186C7.53659 32.6131 6.8395 33.2933 5.94095 33.4924L5.68065 33.5496C4.87799 33.7277 4.13577 34.0339 3.4677 34.4393L3.22352 34.1161ZM14.5058 19.3411C15.3947 19.3411 16.1176 20.064 16.1176 20.9529V24.9823C16.1176 28.0922 13.5871 30.6234 10.4764 30.6234C7.36574 30.6234 4.83528 28.0922 4.83528 24.9823V20.9529C4.83528 20.064 5.55815 19.3411 6.44704 19.3411H14.5058ZM9.31597 32.1336C9.69473 32.1949 10.0807 32.2352 10.4764 32.2352C10.8721 32.2352 11.2581 32.1949 11.6369 32.1336C11.9842 33.4883 12.9884 34.536 14.3003 34.9583C13.8426 36.1977 12.6523 37.0705 11.2823 37.0705H9.67056C8.30056 37.0705 7.11028 36.1977 6.65254 34.9583C7.96451 34.536 8.96783 33.4883 9.31597 32.1336ZM1.61176 40.63C1.61176 38.2954 3.00674 36.2686 5.10122 35.4136C5.75882 37.3284 7.57849 38.6822 9.67056 38.6822H11.2823C13.3712 38.6822 15.1876 37.3316 15.8484 35.4216C15.9403 35.4595 16.0281 35.5079 16.1176 35.5514V38.3276C16.1176 41.5713 17.3796 44.545 19.5039 46.741H1.61176V40.63ZM24.9823 48.3141C20.6337 46.9038 17.7294 42.9203 17.7294 38.3268V33.3529L18.0195 33.4496C20.2679 34.1967 22.7879 33.859 24.7582 32.5471L24.9823 32.398L25.2071 32.5479C27.1759 33.8598 29.6959 34.1991 31.9459 33.4496L32.2352 33.3537V38.3276C32.2352 42.9203 29.3308 46.9038 24.9823 48.3141ZM48.3528 46.741H30.4606C32.5849 44.5442 33.8469 41.5705 33.8469 38.3276V34.7922C33.9461 34.7713 34.0452 34.752 34.1451 34.735C34.835 36.1493 36.2694 37.0705 37.8763 37.0705C39.4825 37.0705 40.9169 36.1502 41.6076 34.7358C45.4911 35.4063 48.3528 38.7499 48.3528 42.7519V46.741Z" fill="white"/>
<path d="M7.25293 22.5649C7.69801 22.5649 8.05881 22.2041 8.05881 21.759C8.05881 21.3139 7.69801 20.9531 7.25293 20.9531C6.80786 20.9531 6.44705 21.3139 6.44705 21.759C6.44705 22.2041 6.80786 22.5649 7.25293 22.5649Z" fill="white"/>
<path d="M13.7 22.5649C14.145 22.5649 14.5058 22.2041 14.5058 21.759C14.5058 21.3139 14.145 20.9531 13.7 20.9531C13.2549 20.9531 12.8941 21.3139 12.8941 21.759C12.8941 22.2041 13.2549 22.5649 13.7 22.5649Z" fill="white"/>
<path d="M7.42294 27.1242C8.00478 28.2887 9.17492 29.0116 10.4764 29.0116C11.7779 29.0116 12.948 28.2887 13.5299 27.1242L13.6145 26.9542L12.1728 26.2329L12.0882 26.4038C11.7811 27.0178 11.1638 27.3998 10.4764 27.3998C9.789 27.3998 9.17169 27.0178 8.86465 26.4038L8.78004 26.2337L7.33832 26.955L7.42294 27.1242Z" fill="white"/>
<path d="M39.4881 26.4038C39.1811 27.0178 38.5638 27.3998 37.8763 27.3998C37.1889 27.3998 36.5716 27.0178 36.2646 26.4038L36.18 26.2337L34.7383 26.955L34.8229 27.125C35.4047 28.2887 36.5749 29.0116 37.8763 29.0116C39.1778 29.0116 40.348 28.2887 40.9298 27.1242L41.0144 26.9542L39.5727 26.2329L39.4881 26.4038Z" fill="white"/>
<path d="M28.4419 36.5005L22.5646 42.3778L21.5226 41.3358L20.3831 42.4753L22.5646 44.6568L29.5814 37.64L28.4419 36.5005Z" fill="white"/>
</svg>
